<?xml version="1.0" encoding="UTF-8"?>
<svg id="Capa_1" data-name="Capa 1" xmlns="http://www.w3.org/2000/svg" viewBox="0 0 157.55 179.96">
  <defs>
    <style>
      .cls-1 {
        fill: #0f2d3f;
      }

      .cls-1, .cls-2, .cls-3, .cls-4, .cls-5, .cls-6, .cls-7, .cls-8, .cls-9, .cls-10 {
        stroke-width: 0px;
      }

      .cls-2 {
        fill: #03c6c3;
      }

      .cls-3 {
        fill: #0e2d40;
      }

      .cls-4 {
        fill: #02c6c3;
      }

      .cls-5 {
        fill: #00c6c2;
      }

      .cls-6 {
        fill: #0e2d41;
      }

      .cls-7 {
        fill: #4cc4bf;
      }

      .cls-8 {
        fill: #0f2d3e;
      }

      .cls-9 {
        fill: #0f2c3f;
      }

      .cls-10 {
        fill: #112e40;
      }
    </style>
  </defs>
  <path class="cls-1" d="M157.55,8.44c-.82,4.49-3.78,7.58-6.95,10.51-3.65,3.38-7.75,6.18-11.92,8.87-5.42,3.5-11.07,6.63-16.58,9.97-1.62.98-3.23,1.96-4.67,3.19-.34.29-.35.5-.12.88,1.05,1.74,2.06,3.52,3.11,5.26.2.33.16.55-.02.85-.71,1.16-1.5,2.28-1.91,3.61-.3.98-.32,1.97.02,2.92.71,1.96,1.8,3.58,3.95,4.19,1.27.36,2.56.28,3.85.13.71-.08,1.41-.19,2.11-.28.17-.02.32-.03.44.16,1.62,2.71,3.74,5.05,5.62,7.57.74.99,1.45,2,2.18,3,.17.24.19.37-.08.58-1.75,1.38-3.48,2.79-5.21,4.19-.12.1-.23.18-.36.19,0,0-.13,0-.28-.07-.38-.2-9.2-5.83-9.68-6.14-.15-.09-.27-.21-.36-.34-.2-.31-.21-.8.01-1.14.29-.44.95-.62,1.54-.35,2.62,1.13,5.24,2.25,7.86,3.38-.74-.85-1.52-1.55-2.3-2.25-1.45-1.3-2.95-2.54-4.51-3.71-.13-.1-.24-.14-.35-.15-.19,0-.34.12-.38.15-.54.43-7.56,5.18-7.74,5-.17-.18,4.47-6.48,5.08-7.26.03-.04.13-.17.11-.32-.01-.09-.07-.18-.19-.28-.58-.5-1.12-1.05-1.76-1.48-.3-.2-.51-.18-.8.02-1.27.93-2.42,2.01-3.62,3.03-1.42,1.2-2.85,2.38-4.53,3.2-.11.05-.21.16-.4.08.82-1.71,1.82-3.29,3.01-4.76,1-1.23,2.1-2.39,2.96-3.74.2-.31.17-.49-.04-.77-.57-.75-1.34-1.17-2.17-1.54-.37-.16-.43.12-.56.28-2.21,2.67-4.69,5.05-7.46,7.13-.37.28-.78.51-1.18.76-.19.11-.39.2-.71.37,1.91-4.14,4.8-7.5,7.2-11.2-4.02.14-7.86,1.03-11.74,2.13.29.15.54.27.75.37,1.32.62,3.67,1.72,4.84,2.18.13.05.47.18.5.42.02.13-.07.24-.1.3-.53.79-1.11,1.55-1.47,2.45-.04.09-.08.14-.13.17-.15.08-.33,0-.39-.02-.7-.28-5.85-1.86-6.74-2.12-1.14-.33-2.65-.75-4.51-.47-1.67.25-2.81.99-3.26,1.19-4.46,2.03-8.73,4.43-12.99,6.82-7.77,4.37-15.89,7.92-24.45,10.45-1.04.31-2.06.65-3.06,1.07-.36.15-.38.28-.2.61,1.47,2.75,2.91,5.52,4.4,8.26.21.39.13.49-.24.59-1.31.36-2.56.91-3.91,1.18-.8.16-1.52,0-2.23-.31-1.39-.63-2.61-1.53-3.88-2.35-1.1-.7-2.22-1.39-3.3-2.13-1.13-.78-2.61-1.48-4.19-1.88-2.87-.72-3.8.53-8.56.57-2.66.02-4.14.02-4.74-.96-.85-1.37.41-4.05,2.18-5.07.72-.42,1.55-.57,1.62-.42.09.18-1.07.65-1.76,1.9-.09.16-.79,1.42-.42,2.15.61,1.21,4,.62,5.62.35,9.45-1.6,20.27-3.14,24.77-6.94.28-.24.57-.49.57-.49.81-2.53,2.78-4.14,4.69-5.75,4.77-4.03,9.88-7.61,14.99-11.18,14.43-10.1,29.39-19.34,44.67-28.08,7.98-4.56,16.06-8.93,24.5-12.6,3.24-1.41,6.51-2.71,9.96-3.51.78-.18,1.58-.31,2.38-.39.16-.02.35.02.44-.18.45-.98,1.09-1.88.96-3.05-.13-1.23-.16-1.15-1.25-1.27-1.13-.12-2.23.12-3.33.39-4.54,1.11-8.8,2.95-13.06,4.82-7.22,3.17-14.23,6.76-21.3,10.24-.63.31-1.26.6-1.96.78,1.33-.86,2.65-1.73,3.98-2.59,6.23-4,12.59-7.78,19.33-10.87,4.62-2.12,9.38-3.86,14.34-5.03.31-.07.61-.14.92-.21.01,0,.02-.03.05-.08-1.08-.78-2.31-1.11-3.61-1.16-3.07-.12-5.89.78-8.58,2.19-1.75.92-3.47,1.92-5.4,2.42-.48.12-.97.22-1.49.11-.45-.09-.41-.26-.24-.56.33-.6.81-1.07,1.35-1.49,1.09-.86,2.33-1.49,3.5-2.23.65-.41,1.29-.83,1.91-1.46-.79-.08-1.5-.08-2.21.04-3.73.63-7.12,2.2-10.48,3.85-5.82,2.85-11.35,6.21-16.84,9.63-5.8,3.61-11.41,7.49-17.16,11.18-1.1.71-2.22,1.38-3.5,1.9.11-1.01.67-1.62,1.44-2.1,1.85-1.17,3.69-2.35,5.52-3.55,6.08-3.99,12.09-8.11,18.31-11.89,5.34-3.24,10.8-6.26,16.52-8.79,1.74-.77,3.55-1.38,5.47-1.56.03,0,.05-.05.08-.07h2.36c2.27.07,4.49.54,6.74.74,1.83.16,3.67.1,5.5.32,2.63.31,4.25,1.78,5.09,4.22.18.52.11,1.07.23,1.6v1.58Z"/>
  <path class="cls-5" d="M87.21,63.39c.08-.74.23-1.47.4-2.2.05-.21.19-.26.34-.32,1.2-.47,2.39-.94,3.59-1.41.42-.16.85-.12,1.26.03,1.82.66,3.7,1.16,5.54,1.75.92.29,1.85.59,2.78.85.28.08.33.17.27.46-.21.91-.51,1.8-.5,2.75,0,.44.1.49.52.37,1.01-.3,1.94-.76,2.8-1.36.27-.19.42-.18.67.03,2.86,2.39,5.37,5.1,7.48,8.18,1.93,2.81,3.42,5.85,4.46,9.09.79,2.5,1.37,5.04,1.54,7.67-.31.18-.55-.03-.78-.17-.62-.36-1.23-.73-1.82-1.12-3.41-2.24-7.14-3.73-11.09-4.68-.96-.23-1.93-.46-2.93-.53-1.65-.12-2.94.55-3.92,1.8-1.54,1.94-3,3.94-4.31,6.04-.92,1.46-1.84,2.92-2.75,4.38-.15.23-.31.46-.4.79.78-.44,1.5-.92,2.33-1.18,1.97-.61,3.96-.5,5.96-.28,2.14.24,4.29.44,6.43.64,1.96.18,3.92.34,5.88.42,2.47.1,4.8-.43,6.95-1.7.2-.12.38-.32.66-.23-.02,2.08-.18,4.15-.5,6.2-.33,2.15-.78,4.26-1.42,6.33-.93,3.03-2.06,5.98-3.81,8.66-.27.41-.56.5-.98.31-2.86-1.28-5.72-.88-8.59,0-2.09.63-4.07,1.55-6.17,2.14-2.31.65-4.66,1.06-7.05,1.25-2.59.2-5.16.09-7.73-.24-.24-.38-.15-.81-.12-1.21.39-4.57,1.25-9.06,2.67-13.43,1-3.07,2.21-6.06,3.73-8.92,1.76-3.31,3.85-6.39,6.26-9.26.13-.16.3-.28.45-.42-3.38,2.91-6.84,5.75-9.98,8.94-3.26,3.32-6.47,6.67-9.4,10.3-2.78,3.44-5.64,6.82-8.47,10.22-.14.16-.22.46-.54.36-1.75-.31-3.5-.65-5.29-.53-.6.04-.61-.52-.77-.87-.16-.34.13-.52.43-.66,1.42-.66,2.09-1.85,2.26-3.35.23-2.03-.72-3.5-2.36-4.54-.96-.61-2.03-.45-3.01.03-1.46.71-2.66,1.8-3.77,2.95-.94.98-1.17,2.29-1.22,3.62-.06,1.69-.07,1.68-1.73,1.68-.73,0-1.46-.11-2.18-.17-1.03-.09-2.05.18-3.08.25-.5.03-1.01.08-1.5.18-.55.12-.81-.12-1.11-.54-.54-.77-.74-1.61-.76-2.53-.02-.92-.09-1.83-.11-2.75-.04-1.57.53-2.91,1.6-4.06.2-.22.38-.46.59-.66,1.33-1.26,1.75-2.74,1.04-4.46-.28-.68-.19-1.25.26-1.82.54-.68.58-1.56.86-2.35.17-.48.47-.73.92-.88.67-.23,1.38-.32,2.03-.61.3-.13.51-.31.49-.66-.02-.32.15-.5.42-.59,1.49-.49,2.06-.03,2.24,1.46.08.68.04,1.39.02,2.08-.01.36.05.59.46.66.35.06.68.2,1.02.28.77.19,1.32-.02,1.7-.72.62-1.16,1.1-2.38,1.31-3.67.21-1.29.87-2.11,2.14-2.42.29-.07.38-.21.37-.5-.02-.52.03-1.05.02-1.57-.01-.37.13-.62.49-.7,1.04-.23,1.73-.89,2.27-1.76.41-.65.99-.99,1.77-.97,1.58.04,2.91-.7,4.26-1.39.21-.11.21-.26.2-.46-.02-.51-.03-1.01-.01-1.52.02-.72.33-1.28,1.05-1.48,2.45-.69,3.88-2.41,4.82-4.67.44-1.08.86-2.19,1.86-2.93.13-.1.17-.24.16-.4,0-.15.01-.3,0-.45-.1-.99-.08-1.85,1.11-2.31.69-.27,1.05-.99.92-1.82-.06-.37.1-.57.42-.74,1.21-.66,2.37-1.41,3.73-1.76.45-.12.76-.19.88.44.13.69.42,1.35.61,2.03.15.52.29,1.01,1.01.82.22.24.1.51.05.75-.32,1.42-.36,2.86-.34,4.31.02,2.4.48,4.73.9,7.07.33,1.81.62,3.63.66,5.46.04,2.04-.31,4.03-1.23,5.89-.08.17-.18.33-.21.52.07.04.11-.02.15-.05,1.95-1.95,4-3.79,6.12-5.56,1.14-.95,2.33-1.83,3.49-2.75,1.73-1.38,2.21-3.13,1.81-5.26-.6-3.13-1.79-5.99-3.66-8.57-.75-1.04-1.58-2-2.52-2.87-.35-.32-.68-.64-.94-1.04-.46-.69-.49-1.4-.09-2.12.16-.3.35-.58.47-.9.13-.33,0-.47-.35-.39-.84.2-1.47.72-2.03,1.34-.23.25-.36.63-.76.69Z"/>
  <path class="cls-5" d="M110.32,124.25c-.44,1.01-1.06,1.91-1.7,2.79-1.74,2.39-3.55,4.74-5.62,6.85-3.84,3.9-8.08,7.31-12.89,9.97-3.1,1.72-6.34,3.13-9.72,4.21-2.62.84-5.29,1.44-8,1.9-3.92.66-7.87.78-11.82.65-1.98-.07-3.95-.33-5.92-.62-2.76-.42-5.47-1.05-8.12-1.88-3.08-.96-6.05-2.19-8.92-3.68-3.28-1.7-6.37-3.7-9.25-6.02-2.55-2.06-4.88-4.36-7.03-6.84-2.92-3.38-5.37-7.08-7.42-11.05-1.8-3.49-3.29-7.1-4.34-10.88-.91-3.27-1.46-6.6-1.66-9.99-.18-3.01-.04-6,.27-8.98.19-1.86.5-3.7.83-5.55.46-2.54,1.07-5.04,1.62-7.55.1-.44.28-.53.69-.35,1.47.64,2.86,1.42,4.25,2.23,1.93,1.12,3.82,2.31,5.63,3.63.39.28.47.56.4,1.04-.34,2.39-.64,4.78-.93,7.18-.46,3.81-.65,7.62-.32,11.45.25,2.93.86,5.8,1.81,8.58,1.6,4.68,3.76,9.08,6.55,13.17,2.9,4.25,6.4,7.93,10.47,11.07,3.97,3.06,8.31,5.44,13,7.2,2.93,1.1,5.93,1.92,9.01,2.42,3.87.63,7.77.89,11.71.56,2.97-.25,5.91-.69,8.79-1.44,4.3-1.11,8.37-2.8,12.2-5.04,4.68-2.73,8.87-6.07,12.52-10.08,1.42-1.56,2.71-3.21,3.93-4.93Z"/>
  <path class="cls-1" d="M48.4,44.17c1.54-3.31,4.14-5.86,6.38-8.76-.42-.09-1.04-.23-1.79-.42-3.37-.84-4.18-1.33-5.25-.98-.52.17-.49.34-2.07,1.95-1.34,1.37-2.68,2.84-4.41,3.91-.95.59-1.92,1.13-3.06,1.62.72-1.57,1.59-2.91,2.57-4.17.99-1.27,2-2.51,3.04-3.82-1.4-.37-2.75-.62-4.1-.84-.71-.11-1.42-.14-2.13-.17-1.63-.08-3,.46-4.11,1.69-1.2,1.33-2.56,2.47-4.17,3.28-.44.22-.9.42-1.45.68,1.04-2.61,3.06-4.44,4.41-6.81-4.5-.73-8.96-1.45-13.42-2.18l-.02.08c3.58.95,7.16,1.91,10.74,2.84.38.1.43.19.22.5-.27.41-.53.82-.75,1.25-.16.3-.33.31-.63.22-8.85-2.68-17.71-5.35-26.56-8.03-.48-.15-.92-.4-1.26-.79-.12-.14-.21-.24,0-.39,1.79-1.22,3.56-2.49,5.74-2.95,1.29-.27,2.61-.22,3.92-.09,2.7.27,5.4.55,8.1.86,2.36.27,4.72.57,7.07.87,2.19.27,4.38.53,6.57.82,2.09.28,4.18.58,6.28.87,2.04.28,4.08.54,6.12.82,1.7.23,3.41.48,5.11.71,2.07.29,4.15.57,6.22.86,2.09.29,4.18.58,6.28.86,1.78.24,3.56.48,5.34.68.41.05.44.18.35.52-.29,1.16-.64,2.29-.91,3.46-.79,3.48,2.23,6.46,5.13,6.65,2.43.15,4.65-.58,6.81-1.56,2.72-1.23,5.21-2.85,7.61-4.61.39-.29.79-.57,1.2-.83.7-.45,1.49-.64,2.31-.53,1.57.22,3.14.48,4.71.72.55.08,1.11.15,1.67.22.09.01.2,0,.28.03.32.17.75.29.91.56.12.2-.32.45-.53.64-5.54,5.12-11.43,9.78-18.01,13.53-.75.42-1.53.77-2.33,1.08-.34.13-.58.1-.87-.11-2.05-1.52-3.97-3.2-5.92-4.84-2.51-2.11-4.99-4.26-7.61-6.23-.72-.54-1.45-1.05-2.24-1.49-.45-.25-.78-.2-1.15.12-1.33,1.16-2.65,2.32-3.99,3.46-3.31,2.82-4.86,3.79-5.53,4.01-.34.11-.62.18-.81.23Z"/>
  <path class="cls-5" d="M107.41,123.45c-.54,1.13-1.26,2.13-2.05,3.08-4.51,5.38-10.09,9.36-16.39,12.39-2.69,1.29-5.5,2.22-8.39,2.9-4.76,1.11-9.59,1.43-14.46,1.05-5.45-.43-10.68-1.76-15.66-3.98-5.99-2.67-11.24-6.41-15.63-11.29-3.58-3.98-6.21-8.54-8.21-13.48-1-2.46-1.83-4.97-2.41-7.56-.9-4.01-1.22-8.06-1.03-12.16.09-1.85.2-3.7.51-5.53.18-1.09.45-2.15.92-3.16.16-.34.32-.45.73-.21,2.64,1.57,5.3,3.11,7.96,4.64.48.28.64.59.62,1.16-.12,3.13-.41,6.25-.32,9.39.06,1.99.35,3.95.78,5.89.6,2.72,1.46,5.35,2.59,7.9,1.38,3.12,3.13,6,5.24,8.67,2.8,3.55,6.12,6.54,9.91,9,2.93,1.9,6.06,3.43,9.37,4.55,1.86.63,3.75,1.16,5.67,1.53,2.8.53,5.63.77,8.49.73,8.31-.12,15.84-2.61,22.64-7.36,2.83-1.98,5.36-4.31,7.77-6.77.45-.46.83-.98,1.36-1.36Z"/>
  <path class="cls-1" d="M48.81,57.1c-2.49,1.6-5.6,3.32-9.31,4.8-5.55,2.22-10.59,3.19-14.46,3.61-2-6.11-3.99-12.22-5.99-18.34-.01-.15-.03-.29-.04-.44,2.21-1.37,4.42-2.74,6.63-4.12,10.42,7,18.01,12.11,18.38,12.36.06.04.25.17.51.19.16.01.33-.02.52-.1,2.34-.96,4.52-2.23,6.7-3.48,1.96-1.12,3.89-2.31,5.86-3.43.83-.47,3.6-1.62,3.84-1.23.24.38-1.88,2.47-12.64,10.16Z"/>
  <path class="cls-1" d="M66.92,114.68c.91-1.08,1.84-2.16,2.74-3.25,2.94-3.53,5.82-7.12,8.83-10.59,4.15-4.78,8.61-9.26,13.47-13.31,1.13-.95,2.25-1.92,3.38-2.87.09-.07.15-.22.36-.17-.79.98-1.6,1.93-2.35,2.91-2.69,3.54-4.93,7.35-6.64,11.46-1.31,3.14-2.34,6.37-3.1,9.69-.57,2.5-.98,5.02-1.19,7.58-.05.65-.12,1.31-.12,1.96-.18.96-.09,1.94-.14,2.91-.01.22.11.23.28.24,1.82.09,3.63.01,5.45-.15,3.68-.34,7.05-1.73,10.48-2.93,2.49-.87,5.03-1.57,7.72-1.43.37.02.74.07,1.11.13.13.02.25.09.49.18-.97.19-1.83.36-2.69.51-2.53.43-4.84,1.46-7.15,2.52-2.41,1.11-4.81,2.23-7.43,2.78-2.91.62-5.84.67-8.78.45-6.01-.45-11.79-2.04-17.58-3.59-3.26-.87-6.51-1.8-9.85-2.36-2.54-.42-5.11-.8-7.7-.64-.88.06-1.7.37-2.55.55.99-.83,2.16-1.22,3.4-1.43,2.14-.36,4.26-.18,6.38.15,3.39.53,6.74,1.28,10.08,2.06.2.05.35.05.5-.14.85-1.08,1.72-2.16,2.58-3.24Z"/>
  <path class="cls-1" d="M118.58,93.47c-2.48,1.66-5.21,2.23-8.16,2.05-1.81-.11-3.63-.22-5.44-.39-2.5-.24-4.99-.53-7.48-.75-2.35-.2-4.65-.04-6.69,1.34-.22.15-.46.28-.78.47.1-.52.34-.85.55-1.19,2.05-3.33,4.11-6.65,6.49-9.75.45-.58.91-1.14,1.47-1.62,1.14-.99,2.51-1.18,3.91-.93,4.83.85,9.36,2.53,13.5,5.2.78.5,1.52,1.1,2.42,1.39.72.4,1.4.23,2.06-.17.46-.28.87-.65,1.41-.78.22-.06.48-.14.64.02.13.13-.03.36-.08.53-.37,1.08-1.08,1.95-1.83,2.78-.6.67-1.29,1.24-1.98,1.81Z"/>
  <path class="cls-1" d="M87.21,63.39c.63-.76,1.21-1.58,2.17-1.99.39-.17.9-.49,1.19-.17.26.29-.12.76-.31,1.11-.74,1.31-.67,1.98.44,3.01,2.52,2.33,4.4,5.07,5.59,8.28.57,1.53.95,3.11,1.1,4.74.16,1.64-.48,2.95-1.71,4.01-1.31,1.14-2.75,2.12-4.08,3.25-1.92,1.64-3.81,3.31-5.6,5.1-.21.2-.37.48-.73.55.07-.62.4-1.13.63-1.67.81-1.91.99-3.89.87-5.94-.16-2.55-.73-5.03-1.12-7.54-.41-2.6-.58-5.21-.17-7.83.07-.48.16-.95.24-1.43.4-1.2.86-2.37,1.49-3.48Z"/>
  <path class="cls-5" d="M34.37,67.85c-.73.74-1.53,1.3-2.34,1.86-1.83,1.27-3.65,2.55-5.53,3.75-1.5.96-3.07,1.08-4.72.54-3.17-1.05-6.43-1.78-9.67-2.58-3.15-.78-6.29-1.58-9.39-2.55-.82-.25-1.61-.6-2.4-.92-.33-.13-.47-.28-.11-.61,1.39-1.23,3.02-1.87,4.86-2.05,2.47-.24,4.89.13,7.33.43,2.86.35,5.74.57,8.62.71,2.04.1,4.08.22,6.11.38,1.66.14,3.32.28,4.97.52.73.11,1.48.21,2.26.51Z"/>
  <path class="cls-1" d="M87.09,30.8c-1.78,1.32-4.28,3.13-7.1,5-.35.23-1.69,1.04-3.56,1.85-1.07.46-2.18.76-3.36.77-2.15,0-3.69-1.16-4.22-3.24-.45-1.76-.13-3.23,0-3.67.53-1.84,1.73-3,3.33-4.39,1.8-1.55,4.22-3.5,7.28-5.59-.08.87-.08,2.18.39,3.66.22.7.73,2.24,2.16,3.59.89.84,1.75,1.25,2.08,1.4,1.23.55,2.34.63,2.99.63Z"/>
  <path class="cls-5" d="M41.35,120.93c.96-1.24,2.22-1.92,3.66-2.26,2.52-.58,5.02-.32,7.52.17,3.9.77,7.72,1.87,11.55,2.92,3.13.86,6.26,1.75,9.42,2.47,3.95.9,7.92,1.6,11.99,1.51,4.08-.08,7.94-1.04,11.58-2.87,2.34-1.18,4.69-2.37,7.19-3.18,1.89-.61,3.82-.93,5.81-.58.23.04.49.04.69.29-1.01.28-1.99.58-2.98.81-2.16.49-4.08,1.49-5.96,2.61-2.46,1.47-4.84,3.07-7.47,4.23-2.11.93-4.32,1.39-6.61,1.62-2.52.25-5.01.04-7.51-.3-3.27-.45-6.44-1.27-9.59-2.2-3.75-1.11-7.45-2.41-11.18-3.61-2.5-.81-5.02-1.57-7.61-2.05-2.08-.39-4.19-.64-6.32-.49-.84.06-1.65.31-2.46.53-.58.15-1.16.26-1.74.39Z"/>
  <path class="cls-1" d="M135.86,51.4c-2.64,2.13-6.08,4.48-9.83,5.9-.82.31-1.97.61-3.25.28-1.9-.49-3.25-2.49-3.09-4.47.1-1.27.53-2.4,2.04-4.2,1.48-1.77,3.95-4.27,7.82-6.59-.12.46-.77,3.1.83,5.69,1.83,2.97,5.09,3.36,5.48,3.4Z"/>
  <path class="cls-1" d="M71.29,50.67c-5.6-2.86-11.2-5.71-16.86-8.6.87-.98,1.69-1.95,2.86-2.55.81-.41,1.59-.27,2.35.18.73.44,1.36,1,1.95,1.6,3.09,3.15,6.55,5.9,9.58,9.1.06.07.15.11.23.17-.03.03-.07.07-.1.1Z"/>
  <path class="cls-1" d="M44.43,39.03c.76-.87,1.52-1.73,2.28-2.6,1.5.34,2.99.67,4.49,1.01-.6.98-1.2,1.96-1.8,2.94-1.66-.45-3.31-.9-4.97-1.35Z"/>
  <path class="cls-6" d="M41,34.94c-.38.87-.98,1.5-1.6,2.13-.17.18-.33.13-.51.08-1.55-.41-3.09-.83-4.64-1.22-.3-.08-.28-.18-.13-.36.45-.55.91-1.08,1.35-1.64.22-.27.47-.18.71-.12,1.59.37,3.19.75,4.8,1.13Z"/>
  <path class="cls-3" d="M108.51,63.39c-.69-.5-1.38-1-2.07-1.5.8-.85,1.6-1.7,2.4-2.55.73.3,1.45.6,2.18.89-.84,1.05-1.67,2.1-2.51,3.16Z"/>
  <path class="cls-10" d="M114.88,65.99c-.71-.55-1.42-1.09-2.12-1.64.81-.61,1.61-1.22,2.42-1.84.53.5,1.05.99,1.58,1.49-.63.66-1.25,1.33-1.88,1.99Z"/>
  <path class="cls-1" d="M121.83,10.73c.12.12.25.26.38.44.16.21.27.42.35.59-.22.19-.49.4-.83.59-.25.15-.49.26-.71.34-.13-.15-.27-.36-.4-.62-.09-.19-.15-.37-.2-.52.17-.14.38-.3.64-.45.28-.17.54-.28.76-.37Z"/>
  <path class="cls-1" d="M119.04,12.52c.12.12.25.26.38.44.16.21.27.42.35.59-.22.19-.49.4-.83.59-.25.15-.49.26-.71.34-.13-.15-.27-.36-.4-.62-.09-.19-.15-.37-.2-.52.17-.14.38-.3.64-.45.28-.17.54-.28.76-.37Z"/>
  <path class="cls-1" d="M116.25,14.3c.12.12.25.26.38.44.16.21.27.42.35.59-.22.19-.49.4-.83.59-.25.15-.49.26-.71.34-.13-.15-.27-.36-.4-.62-.09-.19-.15-.37-.2-.52.17-.14.38-.3.64-.45.28-.17.54-.28.76-.37Z"/>
  <path class="cls-1" d="M113.46,16.09c.12.12.25.26.38.44.16.21.27.42.35.59-.22.19-.49.4-.83.59-.25.15-.49.26-.71.34-.13-.15-.27-.36-.4-.62-.09-.19-.15-.37-.2-.52.17-.14.38-.3.64-.45.28-.17.54-.28.76-.37Z"/>
  <path class="cls-1" d="M110.67,17.87c.12.12.25.26.38.44.16.21.27.42.35.59-.22.19-.49.4-.83.59-.25.15-.49.26-.71.34-.13-.15-.27-.36-.4-.62-.09-.19-.15-.37-.2-.52.17-.14.38-.3.64-.45.28-.17.54-.28.76-.37Z"/>
  <path class="cls-1" d="M107.88,19.66c.12.12.25.26.38.44.16.21.27.42.35.59-.22.19-.49.4-.83.59-.25.15-.49.26-.71.34-.13-.15-.27-.36-.4-.62-.09-.19-.15-.37-.2-.52.17-.14.38-.3.64-.45.28-.17.54-.28.76-.37Z"/>
  <path class="cls-1" d="M105.09,21.44c.12.12.25.26.38.44.16.21.27.42.35.59-.22.19-.49.4-.83.59-.25.15-.49.26-.71.34-.13-.15-.27-.36-.4-.62-.09-.19-.15-.37-.2-.52.17-.14.38-.3.64-.45.28-.17.54-.28.76-.37Z"/>
  <path class="cls-1" d="M102.3,23.23c.12.12.25.26.38.44.16.21.27.42.35.59-.22.19-.49.4-.83.59-.25.15-.49.26-.71.34-.13-.15-.27-.36-.4-.62-.09-.19-.15-.37-.2-.52.17-.14.38-.3.64-.45.28-.17.54-.28.76-.37Z"/>
  <path class="cls-1" d="M99.51,25.01c.12.12.25.26.38.44.16.21.27.42.35.59-.22.19-.49.4-.83.59-.25.15-.49.26-.71.34-.13-.15-.27-.36-.4-.62-.09-.19-.15-.37-.2-.52.17-.14.38-.3.64-.45.28-.17.54-.28.76-.37Z"/>
  <path class="cls-1" d="M96.72,26.8c.12.12.25.26.38.44.16.21.27.42.35.59-.22.19-.49.4-.83.59-.25.15-.49.26-.71.34-.13-.15-.27-.36-.4-.62-.09-.19-.15-.37-.2-.52.17-.14.38-.3.64-.45.28-.17.54-.28.76-.37Z"/>
  <path class="cls-1" d="M93.93,28.59c.12.12.25.26.38.44.16.21.27.42.35.59-.22.19-.49.4-.83.59-.25.15-.49.26-.71.34-.13-.15-.27-.36-.4-.62-.09-.19-.15-.37-.2-.52.17-.14.38-.3.64-.45.28-.17.54-.28.76-.37Z"/>
  <path class="cls-1" d="M63.68,48.99c.12.12.25.26.38.44.16.21.27.42.35.59-.22.19-.49.4-.83.59-.25.15-.49.26-.71.34-.13-.15-.27-.36-.4-.62-.09-.19-.15-.37-.2-.52.17-.14.38-.3.64-.45.28-.17.54-.28.76-.37Z"/>
  <path class="cls-1" d="M60.32,51.25c.12.12.25.26.38.44.16.21.27.42.35.59-.22.19-.49.4-.83.59-.25.15-.49.26-.71.34-.13-.15-.27-.36-.4-.62-.09-.19-.15-.37-.2-.52.17-.14.38-.3.64-.45.28-.17.54-.28.76-.37Z"/>
  <path class="cls-1" d="M56.96,53.52c.12.12.25.26.38.44.16.21.27.42.35.59-.22.19-.49.4-.83.59-.25.15-.49.26-.71.34-.13-.15-.27-.36-.4-.62-.09-.19-.15-.37-.2-.52.17-.14.38-.3.64-.45.28-.17.54-.28.76-.37Z"/>
  <path class="cls-1" d="M53.6,55.79c.12.12.25.26.38.44.16.21.27.42.35.59-.22.19-.49.4-.83.59-.25.15-.49.26-.71.34-.13-.15-.27-.36-.4-.62-.09-.19-.15-.37-.2-.52.17-.14.38-.3.64-.45.28-.17.54-.28.76-.37Z"/>
  <path class="cls-1" d="M124.62,8.94c.12.12.25.26.38.44.16.21.27.42.35.59-.22.19-.49.4-.83.59-.25.15-.49.26-.71.34-.13-.15-.27-.36-.4-.62-.09-.19-.15-.37-.2-.52.17-.14.38-.3.64-.45.28-.17.54-.28.76-.37Z"/>
  <g>
    <path class="cls-1" d="M22.14,149.6c-2.12,1.23-4.28,1.47-6.5.42-2.73-1.29-4.44-4.39-4.09-7.32.34-2.89,2.78-5.49,5.75-6.11,2.78-.58,5.68.71,7.34,3.26,1.56,2.4,1.49,5.32-.19,7.63q-.41.57-.84.04c-.55-.67-1.08-1.34-1.65-1.99-.24-.27-.27-.47-.11-.82,1-2.15-.56-4.58-2.91-4.54-1.88.03-3.76,1.78-3.78,3.63-.03,2.04,1.84,3.8,4.09,3.07.42-.14.62-.06.87.26.65.82,1.32,1.62,2.02,2.48Z"/>
    <path class="cls-8" d="M104.04,144.61c-.11.1-.2.18-.29.27-.67.68-1.34,1.36-2,2.05-.19.21-.32.24-.53.02-.6-.61-1.22-1.21-1.85-1.8-.21-.19-.24-.31-.02-.53,2.4-2.45,4.8-4.9,7.19-7.36.2-.21.32-.23.53-.01.6.62,1.22,1.22,1.86,1.8.26.23.19.35-.02.56-.63.62-1.21,1.28-1.86,1.88-.35.33-.37.5,0,.85,2.16,2.06,4.28,4.15,6.42,6.21.3.29.36.46.02.78-.64.6-1.25,1.24-1.84,1.9-.28.31-.45.34-.77.02-2.15-2.12-4.32-4.22-6.48-6.32-.11-.1-.21-.2-.34-.33Z"/>
    <path class="cls-9" d="M84.7,167.15c-.19-.02-.17-.19-.22-.33-.91-2.9-1.83-5.79-2.71-8.7-.15-.51-.35-.53-.78-.39-.83.29-1.68.51-2.5.81-.32.11-.43.05-.52-.25-.24-.8-.48-1.61-.74-2.4-.1-.29-.08-.43.25-.53,3.26-1.01,6.51-2.02,9.76-3.06.32-.1.42-.01.51.27.23.79.46,1.58.73,2.35.13.37.02.49-.33.58-.88.25-1.74.56-2.62.81-.32.09-.39.19-.28.54.92,2.88,1.8,5.77,2.72,8.64.14.43.09.62-.37.75-.88.24-1.75.53-2.62.81-.09.03-.18.06-.28.09Z"/>
    <path class="cls-1" d="M65.48,157.39c-1.64-1.06-3.47-1.38-5.42-1.14-5.63.67-7.4,6.31-5.56,10.07,1.37,2.8,3.82,3.83,6.78,3.94.66.01,1.32-.05,1.95-.21,3.09-.79,4.95-2.92,5.29-6.12.29-2.77-.69-5.01-3.04-6.54ZM61.23,166.84c-2.03,0-3.55-1.51-3.56-3.54,0-2.14,1.47-3.67,3.53-3.67,2.04,0,3.54,1.5,3.54,3.55,0,2.08-1.52,3.66-3.52,3.67Z"/>
    <path class="cls-1" d="M49.18,154.9c-.45-.31-.96-.5-1.47-.67-1.69-.53-3.38-1.05-5.06-1.61-.43-.14-.58-.07-.71.36-1.24,3.95-2.49,7.89-3.76,11.83-.12.38-.03.48.3.58,1.43.44,2.85.89,4.27,1.34.82.26,1.61.57,2.49.61,1.84.1,3.45-.87,3.99-2.47.47-1.42.15-2.69-.92-3.82,1.52-.47,2.45-1.41,2.61-2.92.15-1.42-.58-2.46-1.73-3.24ZM44.49,164.07c-.63-.15-1.24-.38-1.86-.56-.19-.06-.28-.12-.2-.35.21-.6.4-1.2.58-1.8.06-.2.13-.25.35-.17.58.21,1.17.37,1.75.57.53.18.8.58.86,1.09-.01.83-.7,1.41-1.48,1.23ZM47.22,158.39c-.19.51-.58.76-1.13.74-.67-.09-1.28-.38-1.93-.55-.17-.04-.24-.16-.17-.34.06-.14.1-.28.15-.42.19-.5.25-1.05.55-1.52.74.24,1.53.35,2.19.78.46.3.53.8.34,1.3Z"/>
    <path class="cls-1" d="M103.43,155.88c-.28-.07-.38-.18-.37-.48.02-1.12-.28-2.17-.77-3.18-.15-.31-.26-.45-.61-.19-.54.39-1.12.75-1.7,1.09-.32.18-.34.36-.19.67.15.31.28.65.23,1.1-.69-.22-1.35-.44-2.01-.62-.27-.07-.26-.17-.16-.38.29-.61.54-1.23.67-1.9.45-2.32-1.37-4.12-3.28-3.95-1.72.15-3.05.98-3.99,2.39-.9,1.36-.66,2.94.52,4.07.54.51,1.19.84,1.86,1.11.28.11.31.23.19.49-.26.58-.43,1.2-.45,1.84-.06,2.48,2.31,4.93,5.37,3.77,1.49-.56,2.61-1.59,3.42-2.95.11-.18.17-.5.47-.34.61.33,1.02-.04,1.47-.33.69-.45,1.39-.89,2.17-1.39-1.04-.3-1.95-.58-2.86-.83ZM95.38,153.03c-.07.16-.17.23-.35.13-.38-.2-.77-.39-1.05-.73-.3-.36-.4-.77-.1-1.17.27-.36.63-.59,1.11-.45.5.14.7.51.74.9,0,.54-.19.93-.35,1.32ZM99.48,157.75c-.21.51-1.23,1.2-1.9,1.19-.36-.03-.72-.24-.94-.65-.26-.47-.26-.96-.11-1.46.05-.16.17-.1.27-.07.85.25,1.71.51,2.56.76.12.04.18.08.11.23Z"/>
    <path class="cls-1" d="M35.77,149.26c-.78-.49-1.55-.98-2.3-1.51-.3-.21-.49-.18-.78.03-2.42,1.73-4.85,3.44-7.28,5.15-1.36.96-2.71,1.93-4.1,2.91.93.61,1.85,1.16,2.7,1.79.47.34.79.33,1.19-.07.28-.28.63-.47.92-.74.24-.23.42-.18.67-.02,1.04.7,2.08,1.4,3.14,2.06.39.24.47.47.34.9-.16.53-.53,1.13-.34,1.61.19.48.86.66,1.33.97.64.43,1.29.84,1.97,1.29.17-.84.34-1.58.49-2.33.77-3.8,1.54-7.6,2.33-11.4.06-.31,0-.48-.27-.64ZM31.25,156.28c-.77-.5-1.49-.98-2.22-1.45-.23-.14-.16-.24,0-.37,1.04-.79,2.09-1.58,3.26-2.46-.36,1.49-.69,2.85-1.04,4.27Z"/>
  </g>
  <path class="cls-4" d="M89.41,26.08c-.69-2.87-2.28-5.09-4.95-6.38-1.46-.71-2.96-.36-3.9.84-.65.84-.76,1.82-.6,2.87.47,3.01,2.03,5.19,4.83,6.43.83.37,1.74.5,2.63.24,1.38-.4,2.02-1.44,2.03-3.16-.01-.28.02-.57-.05-.84ZM88.17,28.04c-.06.09-.29.39-.69.56-1.35.57-3.33-.93-4.36-2.23-1.21-1.52-2.2-4.11-1.16-5.35.23-.28.49-.4.57-.43,1.58-.68,4.23,1.48,5.34,3.82.25.52,1.17,2.46.3,3.63Z"/>
  <path class="cls-2" d="M137.91,47.54c-.38-2.46-1.72-4.27-3.8-5.56-.61-.37-1.29-.62-2.02-.51-1.27.18-2.03,1.19-2.12,2.63-.14,2.13,1.01,3.83,1.22,4.1,1.57,2.03,4.56,3.23,5.78,2.3.5-.38.78-1.17.82-1.29.17-.53.22-1.1.13-1.67ZM136.81,48.34c-.23,1.22-.69,1.49-1.86,1.09-2-.68-3.55-2.86-3.55-5.02-.03-.36.06-.75.22-1.1.31-.66,1.15-.96,1.87-.7,2.05.73,3.72,3.61,3.32,5.73Z"/>
  <g>
    <path class="cls-7" d="M29.62,170.06c-.43-.16-.87-.33-1.3-.5-.48,1.21-.96,2.43-1.44,3.64-.06-.03-.13-.05-.19-.08.48-1.21.96-2.43,1.44-3.64-.43-.17-.86-.35-1.29-.52.02-.06.05-.11.07-.17.92.38,1.84.74,2.77,1.09-.02.06-.04.11-.06.17Z"/>
    <path class="cls-7" d="M30.08,172.22c.42-1.13,1.58-1.67,2.78-1.27,1.2.4,1.8,1.54,1.45,2.69-.35,1.15-1.53,1.74-2.8,1.31-1.27-.43-1.85-1.61-1.44-2.74ZM34.12,173.59c.32-1.05-.22-2.08-1.31-2.45-1.09-.37-2.16.13-2.53,1.16-.37,1.02.16,2.1,1.31,2.49,1.15.39,2.22-.15,2.54-1.19Z"/>
    <path class="cls-7" d="M35.97,174.7c.24-.83.48-1.66.72-2.49.06.02.13.04.19.06-.24.83-.47,1.65-.71,2.48-.23.78.19,1.5,1,1.72.81.22,1.53-.19,1.73-.98.21-.83.42-1.66.64-2.5.06.02.13.03.19.05-.21.84-.42,1.67-.63,2.51-.22.88-1.05,1.35-1.98,1.1-.92-.25-1.41-1.07-1.15-1.95Z"/>
    <path class="cls-7" d="M43.01,176.17c.24.66.5,1.32.76,1.98-.08-.02-.15-.03-.23-.05-.26-.66-.5-1.31-.75-1.97-.43-.09-.86-.19-1.29-.28-.13.58-.26,1.16-.39,1.73-.07-.02-.13-.03-.2-.05.3-1.33.61-2.66.91-4,.5.11.99.22,1.49.33.72.15,1.16.73,1.03,1.4-.12.6-.66.97-1.33.9ZM41.54,175.67c.44.1.88.2,1.32.29.64.13,1.17-.18,1.28-.73.11-.56-.25-1.05-.88-1.18-.43-.09-.86-.19-1.29-.28-.14.63-.29,1.27-.43,1.9Z"/>
    <path class="cls-7" d="M45.59,177.26c.07.01.13.02.2.04-.11.63.33,1.14,1.12,1.27.72.12,1.28-.2,1.36-.76.1-.64-.48-.85-1.09-1.09-.64-.24-1.31-.52-1.18-1.27.12-.65.71-.97,1.52-.84.78.13,1.22.65,1.12,1.33-.07,0-.13-.02-.2-.03.09-.57-.3-1.01-.96-1.12-.68-.11-1.19.15-1.29.68-.11.61.47.84,1.07,1.07.65.25,1.33.51,1.21,1.29-.1.69-.76,1.06-1.6.92-.91-.15-1.43-.75-1.3-1.49Z"/>
    <path class="cls-7" d="M55.74,179.74c-.18-.2-.34-.38-.49-.56-.34.34-.83.52-1.41.46-.77-.07-1.23-.54-1.17-1.14.06-.61.58-.9,1.11-1.16-.4-.58-.5-.91-.48-1.2.05-.47.47-.74,1.03-.69.54.05.9.38.87.82-.05.59-.61.88-1.16,1.14,0,0,0,0,0,0,.27.39.66.88,1.21,1.51.18-.24.3-.55.33-.92.06,0,.12,0,.17.01-.03.42-.16.77-.38,1.05.19.22.4.45.62.7-.08,0-.16-.01-.24-.02ZM55.13,179.04c-.57-.66-.97-1.17-1.25-1.56-.51.25-.97.51-1.02,1.04-.05.51.35.89,1.01.95.52.05.96-.11,1.27-.43ZM53.94,177.27s0,0,0,0c.53-.25,1.03-.5,1.07-1.01.03-.34-.27-.61-.7-.65-.46-.04-.8.18-.84.55-.02.25.1.57.46,1.11Z"/>
    <path class="cls-7" d="M62.49,176.06c-.46,0-.91,0-1.37-.01-.02,1.31-.04,2.61-.06,3.92-.07,0-.14,0-.2,0,.02-1.31.04-2.61.07-3.92-.46,0-.91-.02-1.37-.03,0-.06,0-.12,0-.18.97.03,1.95.05,2.92.05,0,.06,0,.12,0,.18Z"/>
    <path class="cls-7" d="M65.94,178.12c.39.58.8,1.16,1.2,1.74-.08,0-.15,0-.23.01-.4-.58-.8-1.15-1.19-1.73-.44.01-.88.03-1.31.04.01.59.02,1.19.04,1.78-.07,0-.14,0-.2,0-.02-1.37-.05-2.73-.07-4.1.51,0,1.01-.02,1.52-.04.73-.03,1.29.43,1.33,1.11.03.61-.41,1.1-1.07,1.19ZM64.4,177.99c.45,0,.9-.02,1.35-.04.65-.02,1.09-.45,1.06-1.02-.03-.57-.5-.96-1.13-.93-.44.01-.88.03-1.32.04.01.65.03,1.3.04,1.95Z"/>
    <path class="cls-7" d="M71.61,178.35c-.79.08-1.58.14-2.37.2-.15.41-.3.81-.46,1.22-.07,0-.15,0-.22.01.53-1.4,1.04-2.81,1.52-4.22.06,0,.11,0,.17-.01.72,1.31,1.47,2.61,2.24,3.91-.07,0-.15.02-.22.02-.22-.38-.44-.75-.66-1.13ZM69.31,178.36c.74-.05,1.47-.11,2.21-.18-.45-.78-.89-1.56-1.32-2.35-.29.84-.58,1.69-.89,2.53Z"/>
    <path class="cls-7" d="M76.89,174.75c.21,1.35.42,2.7.63,4.05-.06,0-.12.02-.18.03-1.16-1.09-2.28-2.2-3.37-3.33.15,1.24.31,2.49.46,3.73-.07,0-.13.02-.2.02-.17-1.36-.33-2.71-.5-4.07.06,0,.12-.01.18-.02,1.08,1.13,2.2,2.23,3.35,3.32-.19-1.24-.38-2.47-.57-3.71.06,0,.13-.02.19-.03Z"/>
    <path class="cls-7" d="M79.24,177.3c.07-.01.14-.02.2-.04.11.63.71.96,1.49.8.72-.14,1.14-.63,1.02-1.19-.13-.64-.75-.64-1.41-.65-.68-.01-1.41-.03-1.54-.78-.11-.65.33-1.16,1.14-1.31.78-.15,1.37.19,1.51.86-.06.01-.13.03-.19.04-.12-.57-.63-.84-1.29-.72-.68.13-1.07.56-.98,1.09.11.61.73.63,1.37.63.69.01,1.42.02,1.59.79.14.68-.35,1.26-1.19,1.42-.91.18-1.6-.21-1.73-.95Z"/>
    <path class="cls-7" d="M83.61,173.64c.13.57.27,1.14.4,1.71.63-.15,1.25-.3,1.87-.46.01.06.03.12.04.18-.62.16-1.25.31-1.88.46.15.64.3,1.28.45,1.92-.07.02-.13.03-.2.05-.31-1.33-.61-2.66-.92-3.99.73-.17,1.45-.34,2.18-.53.02.06.03.12.05.18-.66.17-1.33.33-1.99.49Z"/>
    <path class="cls-7" d="M90.61,175.62c.02.06.04.12.05.18-.78.24-1.56.46-2.35.68-.36-1.32-.73-2.63-1.09-3.95.73-.2,1.46-.41,2.18-.63.02.06.04.12.05.18-.66.2-1.33.39-2,.58.15.54.3,1.08.45,1.62.63-.17,1.25-.36,1.88-.54.02.06.03.12.05.17-.63.19-1.25.37-1.88.54.17.6.33,1.2.5,1.8.72-.2,1.43-.41,2.14-.62Z"/>
    <path class="cls-7" d="M93.62,172.96c.55.44,1.11.88,1.67,1.31-.07.03-.15.05-.22.08-.56-.43-1.11-.86-1.66-1.3-.42.14-.84.29-1.26.42.18.56.37,1.13.55,1.69-.07.02-.13.04-.2.06-.42-1.3-.84-2.6-1.27-3.9.49-.16.97-.32,1.46-.49.7-.24,1.38.03,1.61.67.21.58-.08,1.17-.69,1.46ZM92.09,173.29c.43-.14.86-.29,1.29-.43.62-.21.92-.76.73-1.29-.19-.53-.76-.77-1.36-.56-.42.14-.84.29-1.27.42.2.62.4,1.24.61,1.85Z"/>
    <path class="cls-7" d="M96.43,172.57c.07-.02.13-.05.2-.07.23.6.88.81,1.63.51.69-.27,1.02-.83.8-1.36-.25-.6-.86-.48-1.52-.37-.68.12-1.41.23-1.68-.48-.23-.62.12-1.2.89-1.51.74-.3,1.4-.08,1.66.56-.06.03-.12.05-.18.08-.22-.54-.78-.71-1.41-.46-.65.26-.96.75-.77,1.26.22.58.84.48,1.48.36.69-.12,1.42-.25,1.72.48.27.64-.12,1.3-.92,1.62-.87.35-1.63.1-1.9-.61Z"/>
  </g>
</svg>